<svg xmlns="http://www.w3.org/2000/svg" width="63.527" height="50" viewBox="0 0 63.527 50">
  <g id="camera" transform="translate(835 -289.8)">
    <g id="Groupe_21" data-name="Groupe 21" transform="translate(-835 289.8)">
      <g id="Groupe_20" data-name="Groupe 20" transform="translate(0)">
        <path id="Tracé_6" data-name="Tracé 6" d="M61.413,52.59A6.83,6.83,0,0,0,56.4,50.476H46.377v-.121a5.422,5.422,0,0,0-1.63-3.925,5.525,5.525,0,0,0-3.925-1.63H22.705a5.567,5.567,0,0,0-5.616,5.556v.121H7.126A6.83,6.83,0,0,0,2.114,52.59,7.179,7.179,0,0,0,0,57.6V87.674a6.83,6.83,0,0,0,2.114,5.012A7.179,7.179,0,0,0,7.126,94.8H56.4a6.83,6.83,0,0,0,5.012-2.114,7.179,7.179,0,0,0,2.114-5.012V57.6A6.83,6.83,0,0,0,61.413,52.59ZM60.386,87.674h-.06A3.917,3.917,0,0,1,56.4,91.6H7.126A3.917,3.917,0,0,1,3.2,87.674V57.6a3.917,3.917,0,0,1,3.925-3.925H18.78a1.624,1.624,0,0,0,1.63-1.63V50.3a2.273,2.273,0,0,1,2.355-2.355H40.821A2.273,2.273,0,0,1,43.176,50.3v1.751a1.624,1.624,0,0,0,1.63,1.63H56.461A3.917,3.917,0,0,1,60.386,57.6Z" transform="translate(0 -44.8)" fill="#fff"/>
        <path id="Tracé_7" data-name="Tracé 7" d="M126.855,130.8a14.844,14.844,0,1,0,10.507,4.348A14.881,14.881,0,0,0,126.855,130.8Zm8.213,23.128a11.663,11.663,0,0,1-16.425,0,11.544,11.544,0,0,1-3.382-8.213,11.8,11.8,0,0,1,3.382-8.213,11.544,11.544,0,0,1,8.213-3.382,11.8,11.8,0,0,1,8.213,3.382,11.544,11.544,0,0,1,3.382,8.213A11.3,11.3,0,0,1,135.068,153.928Z" transform="translate(-95.092 -117.817)" fill="#fff"/>
        <circle id="Ellipse_5" data-name="Ellipse 5" cx="2.959" cy="2.959" r="2.959" transform="translate(50.302 12.923)" fill="#fff"/>
      </g>
    </g>
  </g>
</svg>
