<svg xmlns="http://www.w3.org/2000/svg" width="26.378" height="26.378" viewBox="0 0 26.378 26.378">
  <g id="edit_copie" data-name="edit copie" transform="translate(0 -0.004)">
    <g id="Groupe_150" data-name="Groupe 150" transform="translate(0 1.888)">
      <g id="Groupe_149" data-name="Groupe 149">
        <path id="Tracé_72" data-name="Tracé 72" d="M21.667,45.442a.942.942,0,0,0-.942.942V55.8a.942.942,0,0,1-.942.942H2.826a.942.942,0,0,1-.942-.942V36.963a.942.942,0,0,1,.942-.942h11.3a.942.942,0,1,0,0-1.884H2.826A2.826,2.826,0,0,0,0,36.963V55.8a2.826,2.826,0,0,0,2.826,2.826H19.783A2.826,2.826,0,0,0,22.61,55.8V46.384A.942.942,0,0,0,21.667,45.442Z" transform="translate(0 -34.137)" fill="#fff"/>
      </g>
    </g>
    <g id="Groupe_152" data-name="Groupe 152" transform="translate(5.653 0.004)">
      <g id="Groupe_151" data-name="Groupe 151" transform="translate(0 0)">
        <path id="Tracé_73" data-name="Tracé 73" d="M122.078,1.06a3.606,3.606,0,0,0-5.1,0L104.568,13.469a.952.952,0,0,0-.227.368l-1.884,5.652a.942.942,0,0,0,.893,1.24.957.957,0,0,0,.3-.048L109.3,18.8a.942.942,0,0,0,.368-.228L122.078,6.16A3.606,3.606,0,0,0,122.078,1.06Zm-1.332,3.769L108.5,17.076,104.84,18.3l1.218-3.654L118.309,2.4a1.721,1.721,0,1,1,2.436,2.432Z" transform="translate(-102.409 -0.004)" fill="#fff"/>
      </g>
    </g>
  </g>
</svg>
