<svg xmlns="http://www.w3.org/2000/svg" width="113.964" height="132.572" viewBox="0 0 113.964 132.572">
  <path id="Tracé_5" data-name="Tracé 5" d="M174.877,164.352A27.905,27.905,0,0,0,163.3,159l-20.61-4.135a4.648,4.648,0,0,1-3.722-4.605v-4.727a56.475,56.475,0,0,0,3.881-6.917,37.971,37.971,0,0,1,3.308-5.8c4.173-4.192,8.2-8.9,9.454-14.971,1.165-5.7.019-8.684-1.325-11.09,0-6.005-.188-13.524-1.607-18.993-.169-7.406-1.513-11.569-4.9-15.215-2.387-2.584-5.9-3.186-8.731-3.665a15.257,15.257,0,0,1-3.2-.752A33.165,33.165,0,0,0,119.974,64c-12.377.507-27.593,8.383-32.686,22.424C85.709,90.7,85.868,97.72,86,103.359l-.122,3.393c-1.212,2.368-2.406,5.376-1.231,11.09,1.241,6.081,5.272,10.8,9.52,15.046a41.254,41.254,0,0,1,3.3,5.77,58.412,58.412,0,0,0,3.91,6.889v4.727a4.67,4.67,0,0,1-3.74,4.605l-20.629,4.135a27.967,27.967,0,0,0-11.541,5.338,4.71,4.71,0,0,0-.554,6.842,74.82,74.82,0,0,0,110.521,0,4.708,4.708,0,0,0-.554-6.842Z" transform="translate(-63.191 -63.5)" fill="#455a64" stroke="#fff" stroke-width="1"/>
</svg>
