<svg xmlns="http://www.w3.org/2000/svg" width="128.934" height="122.701" viewBox="0 0 128.934 122.701">
  <g id="box_1_" data-name="box (1)" transform="translate(-0.001 0)">
    <path id="Tracé_92" data-name="Tracé 92" d="M114.6,43.468l13.6-13.6a2.518,2.518,0,0,0-.569-3.988l-16.347-8.976a2.518,2.518,0,1,0-2.424,4.415l13.406,7.361-11.67,11.669L68.623,17.3,80.292,5.635l11.8,6.478A2.518,2.518,0,1,0,94.511,7.7L81.059.311a2.517,2.517,0,0,0-2.992.427l-13.6,13.6L50.869.737A2.519,2.519,0,0,0,47.877.311L1.307,25.883a2.518,2.518,0,0,0-.569,3.988l13.6,13.6-13.6,13.6a2.518,2.518,0,0,0,.569,3.988L15.38,68.781V94.61a2.519,2.519,0,0,0,1.306,2.208l46.57,25.571a2.518,2.518,0,0,0,2.424,0l46.57-25.571a2.519,2.519,0,0,0,1.306-2.208V68.781l14.073-7.727a2.518,2.518,0,0,0,.569-3.988Zm-50.132,22.7L23.13,43.467l41.338-22.7,41.338,22.7ZM48.645,5.635,60.313,17.3,18.342,40.351,6.673,28.682Zm-30.3,40.949L60.315,69.631,48.645,81.3,6.673,58.254ZM108.52,93.121,66.986,115.927V90.185a2.518,2.518,0,1,0-5.037,0v25.742L20.416,93.121V71.547L47.877,86.626a2.518,2.518,0,0,0,2.992-.427l13.6-13.6,13.6,13.6a2.518,2.518,0,0,0,2.992.427L108.52,71.547ZM80.292,81.3,68.622,69.63l41.971-23.046,11.671,11.669Zm0,0" transform="translate(0 0)" fill="#c6c6c6"/>
    <path id="Tracé_93" data-name="Tracé 93" d="M397.319,53.212a2.521,2.521,0,1,0-1.78-.739A2.54,2.54,0,0,0,397.319,53.212Zm0,0" transform="translate(-295.379 -36.044)" fill="#c6c6c6"/>
    <path id="Tracé_94" data-name="Tracé 94" d="M248.518,314.926a2.519,2.519,0,1,0,1.78.738A2.534,2.534,0,0,0,248.518,314.926Zm0,0" transform="translate(-184.05 -235.62)" fill="#c6c6c6"/>
  </g>
</svg>
