<svg xmlns="http://www.w3.org/2000/svg" width="17.519" height="18.978" viewBox="0 0 17.519 18.978">
  <g id="euro-currency-symbol" transform="translate(-16.644)">
    <path id="Tracé_31" data-name="Tracé 31" d="M32.331,15.026a5.583,5.583,0,0,1-4.042,1.829,6.17,6.17,0,0,1-5.534-4.181h6.762a1.062,1.062,0,1,0,0-2.123h-7.3a8.884,8.884,0,0,1-.065-1.062,8.777,8.777,0,0,1,.082-1.194h7.284a1.062,1.062,0,0,0,0-2.123H22.812A6.137,6.137,0,0,1,28.29,2.123a5.584,5.584,0,0,1,4.042,1.829,1.062,1.062,0,0,0,1.539-1.463A7.684,7.684,0,0,0,28.29,0c-3.54,0-6.565,2.571-7.739,6.171H17.706a1.062,1.062,0,1,0,0,2.123H20.1a10.929,10.929,0,0,0-.068,1.194c0,.359.019.713.053,1.062H17.706a1.062,1.062,0,1,0,0,2.123h2.8c1.142,3.67,4.2,6.3,7.781,6.3a7.684,7.684,0,0,0,5.58-2.489,1.062,1.062,0,0,0-1.539-1.463Z" fill="#b1c3d0"/>
  </g>
</svg>
