<svg xmlns="http://www.w3.org/2000/svg" width="54.546" height="50" viewBox="0 0 54.546 50">
  <g id="image-gallery" transform="translate(0 -2)">
    <g id="Groupe_22" data-name="Groupe 22" transform="translate(0 19.502)">
      <path id="Tracé_8" data-name="Tracé 8" d="M39.665,42.2a4.534,4.534,0,0,1-1.159-.15L3.363,32.637A4.587,4.587,0,0,1,.149,27.069L4.583,10.542a1.136,1.136,0,1,1,2.2.586L2.347,27.651a2.306,2.306,0,0,0,1.614,2.793l35.13,9.407a2.262,2.262,0,0,0,2.766-1.6l1.775-6.577a1.137,1.137,0,0,1,2.2.591l-1.773,6.568A4.539,4.539,0,0,1,39.665,42.2Z" transform="translate(0 -9.701)" fill="#fff"/>
    </g>
    <g id="Groupe_23" data-name="Groupe 23" transform="translate(9.09 2)">
      <path id="Tracé_9" data-name="Tracé 9" d="M44.909,38.364H8.545A4.55,4.55,0,0,1,4,33.818V6.545A4.55,4.55,0,0,1,8.545,2H44.909a4.55,4.55,0,0,1,4.545,4.545V33.818A4.55,4.55,0,0,1,44.909,38.364ZM8.545,4.273A2.276,2.276,0,0,0,6.273,6.545V33.818a2.276,2.276,0,0,0,2.273,2.273H44.909a2.276,2.276,0,0,0,2.273-2.273V6.545a2.276,2.276,0,0,0-2.273-2.273Z" transform="translate(-4 -2)" fill="#fff"/>
    </g>
    <g id="Groupe_24" data-name="Groupe 24" transform="translate(15.908 8.818)">
      <path id="Tracé_10" data-name="Tracé 10" d="M11.545,14.091a4.545,4.545,0,1,1,4.545-4.545A4.55,4.55,0,0,1,11.545,14.091Zm0-6.818a2.273,2.273,0,1,0,2.273,2.273A2.276,2.276,0,0,0,11.545,7.273Z" transform="translate(-7 -5)" fill="#fff"/>
    </g>
    <g id="Groupe_25" data-name="Groupe 25" transform="translate(9.249 14.614)">
      <path id="Tracé_11" data-name="Tracé 11" d="M5.207,28.868a1.135,1.135,0,0,1-.8-1.939L15.136,16.2a3.493,3.493,0,0,1,4.82,0l3.2,3.2L32,8.777a3.415,3.415,0,0,1,2.6-1.227h.025a3.407,3.407,0,0,1,2.589,1.189L49.093,22.607a1.136,1.136,0,0,1-1.725,1.48L35.482,10.218a1.124,1.124,0,0,0-.864-.4,1.206,1.206,0,0,0-.873.409L24.1,21.8a1.132,1.132,0,0,1-.823.407,1.094,1.094,0,0,1-.855-.332L18.35,17.8a1.167,1.167,0,0,0-1.607,0L6.009,28.536a1.132,1.132,0,0,1-.8.332Z" transform="translate(-4.07 -7.55)" fill="#fff"/>
    </g>
  </g>
</svg>
