<svg id="earth-grid-symbol" xmlns="http://www.w3.org/2000/svg" width="31.586" height="31.587" viewBox="0 0 31.586 31.587">
  <path id="Tracé_46" data-name="Tracé 46" d="M28.684,6.687c-.24-.34-.491-.671-.758-.989A15.764,15.764,0,0,0,15.794,0h-.038L15.7,0A15.77,15.77,0,0,0,3.66,5.7q-.4.479-.758.989A15.738,15.738,0,0,0,2.9,24.9c.24.34.492.671.758.989a15.767,15.767,0,0,0,12.041,5.7l.054,0h.038a15.764,15.764,0,0,0,12.133-5.7c.266-.319.518-.651.758-.99a15.738,15.738,0,0,0,0-18.213ZM11.177,2.054a14.774,14.774,0,0,0-3.489,5.9A15.064,15.064,0,0,1,4.707,6.474,14.537,14.537,0,0,1,11.177,2.054ZM3.946,7.465a16.634,16.634,0,0,0,3.373,1.7,25.172,25.172,0,0,0-.864,6.493H1.3A14.414,14.414,0,0,1,3.946,7.465Zm-2.6,9.491H6.48a24.9,24.9,0,0,0,.838,5.465,16.54,16.54,0,0,0-3.371,1.7A14.4,14.4,0,0,1,1.347,16.956ZM4.711,25.11a15.153,15.153,0,0,1,2.975-1.481,14.761,14.761,0,0,0,3.491,5.9A14.532,14.532,0,0,1,4.711,25.11Zm10.435,5.134c-2.659-.364-4.954-3.091-6.255-7.019a23.952,23.952,0,0,1,6.255-.958Zm0-9.272a24.679,24.679,0,0,0-6.619,1.037,24.028,24.028,0,0,1-.749-5.053h7.368Zm0-5.312H7.75A24.462,24.462,0,0,1,8.532,9.58a24.683,24.683,0,0,0,6.612,1.035V15.66Zm0-6.34a23.919,23.919,0,0,1-6.252-.957c1.3-3.926,3.594-6.656,6.252-7.021Zm15.141,6.34h-5.23A25.159,25.159,0,0,0,24.2,9.193,16.624,16.624,0,0,0,27.64,7.466,14.415,14.415,0,0,1,30.287,15.66ZM26.878,6.476a15.126,15.126,0,0,1-3.047,1.507,14.734,14.734,0,0,0-3.537-5.967A14.537,14.537,0,0,1,26.878,6.476ZM16.441,1.352c2.63.406,4.9,3.131,6.182,7.03a23.958,23.958,0,0,1-6.182.938Zm0,9.263A24.723,24.723,0,0,0,22.983,9.6a24.4,24.4,0,0,1,.777,6.059H16.441Zm0,6.34h7.292a24.126,24.126,0,0,1-.744,5.032,24.726,24.726,0,0,0-6.547-1.016V16.956Zm0,13.279V22.267a24,24,0,0,1,6.186.938C21.339,27.106,19.071,29.828,16.441,30.235Zm3.852-.662a14.723,14.723,0,0,0,3.54-5.966,15.143,15.143,0,0,1,3.042,1.5A14.542,14.542,0,0,1,20.294,29.573Zm7.347-5.449A16.582,16.582,0,0,0,24.2,22.4a24.886,24.886,0,0,0,.829-5.439h5.21A14.378,14.378,0,0,1,27.64,24.123Z" fill="#b1c3d0"/>
</svg>
