<svg xmlns="http://www.w3.org/2000/svg" width="22.737" height="22.739" viewBox="0 0 22.737 22.739">
  <g id="global" transform="translate(1.722 1.74)">
    <g id="Groupe_160" data-name="Groupe 160" transform="translate(-1.722 -1.74)">
      <path id="Tracé_75" data-name="Tracé 75" d="M20.652,4.8a.189.189,0,0,0,0-.022c-.028-.041-.063-.076-.093-.115q-.318-.434-.674-.835c-.065-.073-.13-.145-.2-.217q-.366-.392-.768-.748c-.05-.044-.1-.089-.145-.132a11.385,11.385,0,0,0-2.156-1.456c-.031-.016-.063-.03-.1-.046a11.3,11.3,0,0,0-1.056-.47c-.081-.029-.155-.057-.232-.081q-.48-.173-.975-.3c-.1-.026-.195-.053-.294-.076-.325-.076-.65-.133-.982-.18-.1-.015-.2-.034-.3-.046a10.679,10.679,0,0,0-2.577,0c-.1.012-.2.032-.3.046-.332.047-.66.1-.982.18-.1.023-.2.05-.294.076q-.5.13-.975.3L7.319.763a11.29,11.29,0,0,0-1.056.47c-.032.016-.064.03-.1.046A11.388,11.388,0,0,0,4,2.735c-.05.043-.1.089-.145.132a10.565,10.565,0,0,0-.768.748c-.067.071-.132.144-.2.217q-.357.4-.674.835c-.029.04-.064.075-.093.115a.184.184,0,0,0-.01.022,11.3,11.3,0,0,0,0,13.125.177.177,0,0,0,.01.022c.028.041.063.076.093.115q.318.434.674.835c.065.073.13.145.2.217q.367.392.768.748c.05.044.1.089.145.132a11.385,11.385,0,0,0,2.156,1.456c.031.016.063.03.1.046a11.3,11.3,0,0,0,1.056.47c.081.029.155.057.232.081q.48.173.975.3c.1.026.195.053.294.076.325.076.65.133.982.18.1.015.2.034.3.046a10.679,10.679,0,0,0,2.577,0c.1-.012.2-.032.3-.046.332-.047.66-.1.982-.18.1-.023.2-.05.294-.076q.5-.13.975-.3l.232-.081a11.291,11.291,0,0,0,1.056-.47c.032-.016.064-.03.1-.046A11.387,11.387,0,0,0,18.765,20c.05-.043.1-.089.145-.132a10.343,10.343,0,0,0,.768-.748c.067-.071.132-.144.2-.217q.357-.4.674-.835c.029-.04.064-.075.093-.115a.184.184,0,0,0,.01-.022A11.3,11.3,0,0,0,20.652,4.8Zm-.927,1.537a9.666,9.666,0,0,1,1.37,4.214H16.23a15.158,15.158,0,0,0-.455-2.867A14.6,14.6,0,0,0,19.725,6.342Zm-6.27-4.5c.046.011.089.025.135.036a8.742,8.742,0,0,1,.861.244c.043.015.085.032.128.047q.419.146.825.325l.141.068q.387.184.757.4l.162.1q.351.214.682.459c.057.041.114.081.17.127a7.412,7.412,0,0,1,.622.522c.052.047.106.093.157.142.208.2.406.406.6.622.024.028.05.054.075.081A13.626,13.626,0,0,1,15.3,6.127a20.655,20.655,0,0,0-2.187-4.339C13.229,1.808,13.344,1.82,13.456,1.844ZM8.169,10.555a13.554,13.554,0,0,1,.447-2.6,23.277,23.277,0,0,0,2.773.162,23.33,23.33,0,0,0,2.776-.167,13.529,13.529,0,0,1,.444,2.6Zm6.44,1.625a13.554,13.554,0,0,1-.447,2.6,23.774,23.774,0,0,0-5.549,0,13.532,13.532,0,0,1-.444-2.6ZM11.389,2.149a19.62,19.62,0,0,1,2.264,4.224,21.5,21.5,0,0,1-2.264.12,21.662,21.662,0,0,1-2.262-.121A19.774,19.774,0,0,1,11.389,2.149Zm-7.3,2.783c.191-.216.39-.425.6-.622.051-.049.1-.1.157-.142q.3-.274.622-.522c.056-.043.113-.081.17-.127q.331-.244.682-.459l.162-.1q.37-.216.757-.4l.141-.068q.4-.183.825-.325c.042-.015.081-.033.128-.047.282-.094.569-.172.861-.244.046-.011.089-.025.136-.035.111-.024.227-.036.34-.056a20.657,20.657,0,0,0-2.188,4.34A13.625,13.625,0,0,1,4.012,5.015C4.036,4.987,4.062,4.961,4.086,4.932ZM3.053,6.342A14.6,14.6,0,0,0,7,7.689a15.158,15.158,0,0,0-.454,2.867H1.683A9.667,9.667,0,0,1,3.053,6.342Zm0,10.052a9.666,9.666,0,0,1-1.37-4.214H6.548A15.158,15.158,0,0,0,7,15.047,14.594,14.594,0,0,0,3.053,16.393Zm6.27,4.5c-.046-.011-.089-.025-.135-.036a8.741,8.741,0,0,1-.861-.244c-.043-.015-.085-.032-.128-.047q-.419-.146-.825-.325l-.141-.068q-.387-.184-.757-.4l-.162-.1q-.351-.214-.682-.459c-.057-.041-.114-.081-.17-.127a7.411,7.411,0,0,1-.622-.522c-.052-.047-.106-.093-.157-.142-.208-.2-.406-.406-.6-.622-.024-.028-.05-.054-.075-.081a13.626,13.626,0,0,1,3.465-1.113,20.655,20.655,0,0,0,2.187,4.339C9.549,20.927,9.434,20.916,9.322,20.891Zm2.067-.305a19.62,19.62,0,0,1-2.264-4.224,21.148,21.148,0,0,1,4.526,0h0A19.77,19.77,0,0,1,11.389,20.586Zm7.3-2.783c-.191.216-.39.425-.6.622-.051.049-.1.1-.157.142q-.3.275-.622.522c-.056.043-.113.085-.17.127q-.331.244-.682.459l-.162.1q-.369.215-.757.4l-.141.068q-.4.183-.825.325c-.042.015-.081.033-.128.047-.282.094-.569.172-.861.244-.046.011-.089.025-.136.035-.111.024-.227.036-.34.056A20.653,20.653,0,0,0,15.3,16.608a13.625,13.625,0,0,1,3.465,1.113C18.742,17.748,18.716,17.774,18.692,17.8Zm1.033-1.409a14.6,14.6,0,0,0-3.949-1.347,15.158,15.158,0,0,0,.454-2.867H21.1A9.667,9.667,0,0,1,19.725,16.393Z" transform="translate(-0.016 0.002)" fill="#b1c3d0"/>
    </g>
  </g>
</svg>
