<svg xmlns="http://www.w3.org/2000/svg" width="50.836" height="50.682" viewBox="0 0 50.836 50.682">
  <g id="archive" transform="translate(0 -0.77)">
    <path id="Tracé_80" data-name="Tracé 80" d="M40.763,291.018H1.949a.45.45,0,0,1-.45-.45V269.349a.749.749,0,1,0-1.5,0v21.219a1.951,1.951,0,0,0,1.949,1.949H40.763a.75.75,0,0,0,0-1.5Z" transform="translate(0 -241.065)" fill="#fff"/>
    <path id="Tracé_81" data-name="Tracé 81" d="M48.887,22.975H45.094V2.719A1.951,1.951,0,0,0,43.145.77H7.691A1.951,1.951,0,0,0,5.742,2.719V18.77H1.949A1.951,1.951,0,0,0,0,20.719v4.068a.749.749,0,1,0,1.5,0V20.719a.45.45,0,0,1,.45-.45H14.855a.45.45,0,0,1,.45.45v1.807a1.951,1.951,0,0,0,1.949,1.949H48.887a.45.45,0,0,1,.45.45V49.5a.45.45,0,0,1-.45.45H44.261a.749.749,0,0,0,0,1.5h4.626A1.951,1.951,0,0,0,50.836,49.5V24.924a1.951,1.951,0,0,0-1.949-1.949ZM14.855,18.77H7.241V2.719a.45.45,0,0,1,.45-.45H43.145a.45.45,0,0,1,.45.45V22.975H36.646L34.5,19.263A6.836,6.836,0,1,0,28.374,8.646l-1.961-3.4a1.148,1.148,0,0,0-1.99,0L16.266,19.378a1.942,1.942,0,0,0-1.411-.608ZM29.64,13.838a1.5,1.5,0,0,1-.413.054c-.61,0-.891-.264-1.375-.768a3.068,3.068,0,0,0-4.913,0c-.484.505-.765.769-1.376.769a1.542,1.542,0,0,1-.375-.042l4.229-7.325Zm-.4-3.688a5.338,5.338,0,1,1,4.821,7.629c-.142,0-.284-.006-.426-.017ZM16.8,22.525v-1.08l3.622-6.273a2.867,2.867,0,0,0,1.138.219,3.162,3.162,0,0,0,2.458-1.23c.484-.5.765-.768,1.375-.768s.891.264,1.375.768a3.161,3.161,0,0,0,2.457,1.23,2.856,2.856,0,0,0,1.174-.235l4.514,7.819H17.253a.45.45,0,0,1-.45-.45Z" transform="translate(0)" fill="#fff"/>
  </g>
</svg>
