<svg xmlns="http://www.w3.org/2000/svg" width="19.472" height="22.254" viewBox="0 0 19.472 22.254">
  <path id="Icon_awesome-trash-alt" data-name="Icon awesome-trash-alt" d="M1.391,20.168a2.086,2.086,0,0,0,2.086,2.086H15.995a2.086,2.086,0,0,0,2.086-2.086V5.563H1.391ZM13.213,9.041a.7.7,0,1,1,1.391,0v9.736a.7.7,0,1,1-1.391,0Zm-4.173,0a.7.7,0,0,1,1.391,0v9.736a.7.7,0,0,1-1.391,0Zm-4.173,0a.7.7,0,1,1,1.391,0v9.736a.7.7,0,1,1-1.391,0Zm13.909-7.65H13.561L13.152.578A1.043,1.043,0,0,0,12.218,0H7.25a1.031,1.031,0,0,0-.93.578l-.409.813H.7a.7.7,0,0,0-.7.7V3.477a.7.7,0,0,0,.7.7H18.777a.7.7,0,0,0,.7-.7V2.086A.7.7,0,0,0,18.777,1.391Z" fill="red"/>
</svg>
