<svg xmlns="http://www.w3.org/2000/svg" width="27.148" height="26.017" viewBox="0 0 27.148 26.017">
  <g id="settings" transform="translate(0 -10.667)">
    <g id="Groupe_98" data-name="Groupe 98" transform="translate(0 28.766)">
      <g id="Groupe_97" data-name="Groupe 97">
        <path id="Tracé_39" data-name="Tracé 39" d="M26.017,354.828H23a3.933,3.933,0,0,0-7.549,0H1.131a1.131,1.131,0,0,0,0,2.262H15.455a3.933,3.933,0,0,0,7.549,0h3.012a1.131,1.131,0,0,0,0-2.262Zm-6.787,2.828a1.7,1.7,0,1,1,1.7-1.7A1.7,1.7,0,0,1,19.23,357.656Z" transform="translate(0 -352)" fill="#f0f1f5"/>
      </g>
    </g>
    <g id="Groupe_100" data-name="Groupe 100" transform="translate(0 10.667)">
      <g id="Groupe_99" data-name="Groupe 99">
        <path id="Tracé_40" data-name="Tracé 40" d="M26.017,13.495H23a3.933,3.933,0,0,0-7.549,0H1.131a1.131,1.131,0,1,0,0,2.262H15.455a3.933,3.933,0,0,0,7.549,0h3.012a1.131,1.131,0,0,0,0-2.262ZM19.23,16.323a1.7,1.7,0,1,1,1.7-1.7A1.7,1.7,0,0,1,19.23,16.323Z" transform="translate(0 -10.667)" fill="#f0f1f5"/>
      </g>
    </g>
    <g id="Groupe_102" data-name="Groupe 102" transform="translate(0 19.716)">
      <g id="Groupe_101" data-name="Groupe 101">
        <path id="Tracé_41" data-name="Tracé 41" d="M26.017,184.162H11.693a3.933,3.933,0,0,0-7.549,0H1.131a1.131,1.131,0,1,0,0,2.262H4.143a3.933,3.933,0,0,0,7.549,0H26.017a1.131,1.131,0,0,0,0-2.262Zm-18.1,2.828a1.7,1.7,0,1,1,1.7-1.7A1.7,1.7,0,0,1,7.918,186.99Z" transform="translate(0 -181.334)" fill="#f0f1f5"/>
      </g>
    </g>
  </g>
</svg>
