<svg xmlns="http://www.w3.org/2000/svg" xmlns:xlink="http://www.w3.org/1999/xlink" width="28.959" height="26.891" viewBox="0 0 28.959 26.891">
  <defs>
    <linearGradient id="linear-gradient" x1="1" y1="0.21" x2="0.1" y2="1" gradientUnits="objectBoundingBox">
      <stop offset="0" stop-color="#14c8ff"/>
      <stop offset="1" stop-color="#3bffd9"/>
    </linearGradient>
  </defs>
  <path id="Icon_ionic-ios-star" data-name="Icon ionic-ios-star" d="M30.111,12.683H20.6L17.712,4.06a1.047,1.047,0,0,0-1.965,0l-2.889,8.623H3.284A1.037,1.037,0,0,0,2.25,13.718a.76.76,0,0,0,.019.175.994.994,0,0,0,.433.73l7.815,5.507-3,8.72a1.037,1.037,0,0,0,.356,1.164,1,1,0,0,0,.582.252,1.267,1.267,0,0,0,.646-.233L16.73,24.6l7.628,5.436a1.211,1.211,0,0,0,.646.233.929.929,0,0,0,.575-.252,1.025,1.025,0,0,0,.356-1.164l-3-8.72,7.751-5.559.187-.162a1.084,1.084,0,0,0,.336-.692A1.1,1.1,0,0,0,30.111,12.683Z" transform="translate(-2.25 -3.375)" fill="url(#linear-gradient)"/>
</svg>
