<svg xmlns="http://www.w3.org/2000/svg" width="18.512" height="19" viewBox="0 0 18.512 19">
  <g id="letter-t-" transform="translate(-0.328 0)">
    <g id="c179_text" transform="translate(0.328 0)">
      <path id="Tracé_77" data-name="Tracé 77" d="M18.836,4.668a.967.967,0,0,1-.065.348c-.033.063-.131.108-.292.136a.535.535,0,0,1-.7-.4,5.043,5.043,0,0,0-1.447-2.511,7.089,7.089,0,0,0-4.07-.864q-1.177,0-1.29.255a.571.571,0,0,0-.042.241V16.016a1.6,1.6,0,0,0,.425,1.272A3.939,3.939,0,0,0,13,18.031c.359.077.722.149.77.178.342,0,.375.787-.28.787-.019.012-7.721-.006-7.721-.006a.443.443,0,0,1-.055-.761l.571-.255a7.132,7.132,0,0,0,1.645-.751,2.236,2.236,0,0,0,.482-1.6V1.876q0-.412-.511-.481c-.036-.011-.316-.015-.835-.015a6.749,6.749,0,0,0-3.973.937A5.719,5.719,0,0,0,1.377,4.871c-.161.387-.385.513-.668.382C.388,5.177.271,5,.354,4.728A14.679,14.679,0,0,0,.851.4c0-.217.288-.436.866-.4l15.9.043c.528-.077.816.009.863.255A19.784,19.784,0,0,1,18.836,4.668Z" transform="translate(-0.328 0)" fill="#b1c3d0"/>
    </g>
  </g>
</svg>
