<svg id="id-card" xmlns="http://www.w3.org/2000/svg" width="18.717" height="20.797" viewBox="0 0 18.717 20.797">
  <g id="Groupe_39" data-name="Groupe 39" transform="translate(4.159)">
    <path id="Tracé_19" data-name="Tracé 19" d="M10.2,17.4a5.2,5.2,0,1,1,5.2-5.2A5.206,5.206,0,0,1,10.2,17.4Zm0-8.319A3.119,3.119,0,1,0,13.319,12.2,3.123,3.123,0,0,0,10.2,9.08Z" transform="translate(-5 -7)" fill="#b1c3d0"/>
  </g>
  <g id="Groupe_40" data-name="Groupe 40" transform="translate(0 12.478)">
    <path id="Tracé_20" data-name="Tracé 20" d="M20.677,21.319a1.04,1.04,0,0,1-1.04-1.04V18.2a3.123,3.123,0,0,0-3.119-3.119H8.2A3.123,3.123,0,0,0,5.08,18.2v2.08a1.04,1.04,0,1,1-2.08,0V18.2A5.206,5.206,0,0,1,8.2,13h8.319a5.206,5.206,0,0,1,5.2,5.2v2.08A1.04,1.04,0,0,1,20.677,21.319Z" transform="translate(-3 -13)" fill="#b1c3d0"/>
  </g>
</svg>
